# xmcd
#
# Track frame offsets: 
#        150
#        24048
#        46683
#        70764
#        87181
#        106661
#        121272
#        143876
#        165888
#        182981
#        205904
#        226341
#        245599
#
# Disc length: 3494 seconds
#
# Revision: 0
# Processed by: cddbd v1.5.2PL0 Copyright (c) Steve Scherf et al.
# Submitted via: ExactAudioCopy v0.99pb5
#
DISCID=9a0da40d
DTITLE=J Derrickson Project - The Blues In Me
DYEAR=2010
DGENRE=Blues
TTITLE0=That Ain't Enough
TTITLE1=Let Me Be
TTITLE2=I Should've Known
TTITLE3=The Blues In Me
TTITLE4=Ain't That A Shame
TTITLE5=You're Gonna Miss Me
TTITLE6=These Times
TTITLE7=A Little Time
TTITLE8=Can't Let The Blues Get Me Down
TTITLE9=After While
TTITLE10=I've Got To Know
TTITLE11=Chi-Town Blues
TTITLE12=Cab Bartender (Reprise)
EXTD=
EXTT0=
EXTT1=
EXTT2=
EXTT3=
EXTT4=
EXTT5=
EXTT6=
EXTT7=
EXTT8=
EXTT9=
EXTT10=
EXTT11=
EXTT12=
PLAYORDER=
